# xmcd
# 
# Track frame offsets:
#     150
#     23075
#     41945
#     68377
#     95607
#     119940
#     146305
#     165472
#     187175
#     208865
#     232112
#     249465
#     272775
#     293475
# 
# Disc length: 4292
# 
# Revision: 10
# Processed by: cddbd v1.5.2PL0 Copyright (c) Steve Scherf et al.
# Submitted via: fre:ac v1.0.17
# 
DISCID=d310c20e
DTITLE=SOPHIA - THE SHORT HAND 〜SINGLES COLLECTION
DYEAR=2001
DGENRE=
TTITLE0=ヒマワリ
TTITLE1=Early summer rain
TTITLE2=Believe
TTITLE3=little cloud
TTITLE4=街
TTITLE5=君と揺れていたい
TTITLE6=ゴキゲン鳥 〜crawler is crazy〜
TTITLE7=黒いブーツ 〜oh my friends〜
TTITLE8=ビューティフル
TTITLE9=Place〜
TTITLE10=ミサイル
TTITLE11=KURU KURU
TTITLE12=STRAWBERRY and LION
TTITLE13=Thank you
EXTD=YEAR: 2001
EXTT0=
EXTT1=
EXTT2=
EXTT3=
EXTT4=
EXTT5=
EXTT6=
EXTT7=
EXTT8=
EXTT9=
EXTT10=
EXTT11=
EXTT12=
EXTT13=
PLAYORDER=
